<?xml version="1.0" standalone="no"?>
<!DOCTYPE svg PUBLIC "-//W3C//DTD SVG 20010904//EN"
 "http://www.w3.org/TR/2001/REC-SVG-20010904/DTD/svg10.dtd">
<svg version="1.0" xmlns="http://www.w3.org/2000/svg"
 width="270.000000pt" height="80.000000pt" viewBox="0 0 270.000000 80.000000"
 preserveAspectRatio="xMidYMid meet">

<g transform="translate(0.000000,80.000000) scale(0.100000,-0.100000)"
fill="#000000" stroke="none">
<path d="M452 563 c-62 -131 -112 -241 -112 -245 0 -5 8 -8 18 -8 11 1 29 26
54 80 l37 80 103 0 104 0 36 -80 36 -80 40 0 41 0 -106 228 c-58 125 -107 235
-110 245 -3 9 -11 17 -17 17 -7 0 -63 -107 -124 -237z m122 80 c11 -21 29 -62
42 -90 l24 -53 -90 0 -89 0 42 90 c23 49 45 89 48 90 3 0 13 -17 23 -37z"/>
<path d="M190 576 c0 -181 -2 -216 -16 -226 -24 -21 -71 -15 -111 13 -27 20
-39 23 -45 14 -13 -20 -9 -26 25 -47 23 -14 50 -20 95 -20 59 0 66 2 98 34
l34 34 0 206 0 206 -40 0 -40 0 0 -214z"/>
<path d="M880 550 l0 -240 113 0 c138 0 202 17 259 68 81 73 102 186 53 282
-48 95 -133 130 -317 130 l-108 0 0 -240z m257 179 c113 -55 136 -236 42 -330
-39 -39 -100 -59 -179 -59 l-40 0 0 205 0 205 67 0 c47 0 79 -6 110 -21z"/>
<path d="M1440 550 l0 -240 165 0 c140 0 165 2 165 15 0 13 -21 15 -125 15
l-126 0 3 108 3 107 83 3 c64 2 82 6 82 17 0 12 -17 15 -85 15 l-85 0 0 85 0
85 125 0 c104 0 125 2 125 15 0 13 -25 15 -165 15 l-165 0 0 -240z"/>
<path d="M1870 550 l0 -240 165 0 c140 0 165 2 165 15 0 13 -21 15 -125 15
l-125 0 0 110 0 110 85 0 c69 0 85 3 85 15 0 12 -16 15 -85 15 l-85 0 0 85 0
85 125 0 c104 0 125 2 125 15 0 13 -25 15 -165 15 l-165 0 0 -240z"/>
<path d="M2300 550 l0 -240 40 0 40 0 0 115 0 115 25 0 c20 0 41 -22 111 -115
l86 -115 45 0 c52 0 55 -9 -44 122 -40 53 -73 101 -73 106 0 6 10 12 23 16 12
3 36 19 52 36 43 45 42 107 -1 150 -38 39 -82 49 -206 50 l-98 0 0 -240z m227
176 c61 -72 2 -166 -106 -166 l-41 0 0 101 0 101 62 -4 c51 -4 65 -9 85 -32z"/>
<path d="M629 151 c-72 -73 8 -174 115 -147 22 6 26 12 26 46 0 37 -2 40 -27
39 -18 -1 -22 -3 -10 -6 25 -7 20 -66 -6 -71 -38 -7 -68 8 -83 43 -17 42 -10
80 19 100 30 21 57 19 84 -7 13 -12 23 -16 23 -10 0 19 -43 42 -78 42 -24 0
-42 -9 -63 -29z"/>
<path d="M980 90 c0 -73 3 -90 15 -90 12 0 15 16 15 85 0 75 2 85 18 85 41 0
57 -51 22 -70 -20 -11 -20 -12 11 -55 18 -25 38 -45 46 -45 19 0 16 8 -16 49
-29 36 -29 38 -10 49 10 7 19 23 19 37 0 29 -30 45 -86 45 l-34 0 0 -90z"/>
<path d="M1337 169 c-54 -31 -52 -126 4 -154 41 -22 73 -18 108 11 64 54 26
154 -58 154 -20 0 -44 -5 -54 -11z m97 -21 c9 -12 16 -38 16 -58 0 -48 -24
-80 -60 -80 -36 0 -60 32 -60 80 0 20 7 46 16 58 20 30 68 30 88 0z"/>
<path d="M1680 115 c0 -57 3 -69 25 -90 28 -29 70 -32 103 -9 20 14 22 23 20
92 l-2 77 -3 -70 c-4 -76 -20 -105 -58 -105 -39 0 -55 30 -55 103 0 53 -3 67
-15 67 -12 0 -15 -14 -15 -65z"/>
<path d="M2040 89 c0 -68 3 -90 13 -87 6 3 13 21 15 41 3 31 7 37 26 37 13 0
34 8 46 18 43 35 3 82 -71 82 l-29 0 0 -91z m70 71 c15 0 22 -40 10 -55 -7 -8
-21 -15 -31 -15 -16 0 -19 8 -19 41 0 33 3 40 16 35 9 -3 19 -6 24 -6z"/>
</g>
</svg>
